<?xml version="1.0" encoding="UTF-8"?>
<!-- Generator: Adobe Illustrator 21.0.0, SVG Export Plug-In . SVG Version: 6.00 Build 0)  -->
<svg version="1.1" id="Calque_1" xmlns="http://www.w3.org/2000/svg" xmlns:xlink="http://www.w3.org/1999/xlink" x="0px" y="0px" viewBox="0 0 50 50" style="enable-background:new 0 0 50 50;" xml:space="preserve">
<style type="text/css">
	.st0{fill:none;stroke:#FFFFFF;stroke-linecap:round;stroke-linejoin:bevel;stroke-miterlimit:10;}
	.st1{fill:none;stroke:#FFFFFF;stroke-miterlimit:10;}
	.st2{fill:#FFFFFF;stroke:#FFFFFF;stroke-width:1.9249;stroke-miterlimit:10;}
</style>
<polygon class="st0" points="33.3,14.1 29.7,23.6 25.3,15.9 "/>
<polygon class="st0" points="30,4.5 38.2,2 39.3,3.2 30.3,7.1 25.5,4.1 "/>
<polygon class="st0" points="33.3,14.1 30.3,7.1 25.3,15.9 "/>
<polygon class="st0" points="33.3,14.1 36.3,4.5 30.3,7.1 "/>
<polygon class="st0" points="36.3,4.5 46.6,8 39.3,3.2 "/>
<polygon class="st0" points="38.2,2 47.1,8.2 39.3,3.2 "/>
<polygon class="st0" points="47.1,8.2 41.5,16.4 36.3,4.5 "/>
<polygon class="st0" points="33.3,14.1 41.5,16.4 32.3,20.5 "/>
<polygon class="st0" points="29.7,23.6 25.3,35.3 25.2,42.9 28.8,41.6 33.3,14.1 "/>
<polyline class="st0" points="28.8,41.7 27.7,47.8 25.3,49 25.2,42.9 "/>
<polygon class="st0" points="25.5,4.1 21,7.3 25.3,15.9 30.3,7.1 "/>
<polygon class="st0" points="17.1,14.1 20.8,23.6 25.3,15.9 "/>
<polygon class="st0" points="20.5,4.5 12.3,2 11.2,3.2 21,7.3 25.5,4.1 "/>
<polygon class="st0" points="17.1,14.1 21,7.3 25.3,15.9 "/>
<polygon class="st0" points="17.1,14.1 14.2,4.5 21,7.3 "/>
<polygon class="st0" points="14.2,4.5 3.8,8 11.2,3.2 "/>
<polygon class="st0" points="12.3,2 3.4,8.2 11.2,3.2 "/>
<polygon class="st0" points="3.4,8.2 9,16.4 14.2,4.5 "/>
<polygon class="st0" points="17.1,14.1 9,16.4 18.2,20.5 "/>
<polygon class="st0" points="20.8,23.6 25.3,35.3 25.2,42.9 21.7,41.6 17.1,14.1 "/>
<polyline class="st0" points="21.7,41.7 22.7,47.8 25.2,49 25.2,42.9 "/>
<polygon class="st0" points="32,21.8 38.5,29.8 38.5,31.8 36.1,31.8 31,28.1 "/>
<polygon class="st0" points="18.3,21.5 11.9,29.6 11.9,31.5 14.4,31.5 19.4,27.9 "/>
<path class="st1" d="M14.4,31.5"/>
<path class="st1" d="M11.9,29.6"/>
<path class="st1" d="M38.5,29.7"/>
<path class="st1" d="M36,31.8"/>
<g>
	<circle class="st2" cx="21" cy="7.2" r="0.5"/>
	<circle class="st2" cx="30.3" cy="7.1" r="0.5"/>
	<circle class="st2" cx="25.3" cy="15.8" r="0.5"/>
	<circle class="st2" cx="17.1" cy="14.1" r="0.5"/>
	<circle class="st2" cx="41.5" cy="16.3" r="0.5"/>
	<circle class="st2" cx="33.3" cy="14.1" r="0.5"/>
	<circle class="st2" cx="36.3" cy="4.6" r="0.5"/>
	<circle class="st2" cx="47.1" cy="8.2" r="0.5"/>
	<circle class="st2" cx="29.8" cy="23.5" r="0.5"/>
	<circle class="st2" cx="20.8" cy="23.5" r="0.5"/>
	<circle class="st2" cx="9" cy="16.4" r="0.5"/>
	<ellipse transform="matrix(0.5 -0.866 0.866 0.5 -5.3827 7.0153)" class="st2" cx="3.4" cy="8.2" rx="0.5" ry="0.5"/>
	<circle class="st2" cx="14.2" cy="4.5" r="0.5"/>
	<circle class="st2" cx="31.1" cy="28.3" r="0.5"/>
	<circle class="st2" cx="19.4" cy="27.9" r="0.5"/>
	<circle class="st2" cx="25.3" cy="35.1" r="0.5"/>
	<circle class="st2" cx="25.2" cy="42.7" r="0.5"/>
</g>
</svg>