<svg version="1.1" id="Calque_1" xmlns="http://www.w3.org/2000/svg" x="0" y="0" viewBox="0 0 50 50" xml:space="preserve"><style>.st0,.st2{stroke:#fff;stroke-miterlimit:10}.st0{stroke-linecap:round;stroke-linejoin:bevel;fill:none}.st2{fill:#fff;stroke-width:1.9249}</style><path class="st0" d="M33.3 14.1l-3.6 9.5-4.4-7.7zM30 4.5L38.2 2l1.1 1.2-9 3.9-4.8-3zm3.3 9.6l-3-7-5 8.8z"/><path class="st0" d="M33.3 14.1l3-9.6-6 2.6zm3-9.6L46.6 8l-7.3-4.8zM38.2 2l8.9 6.2-7.8-5z"/><path class="st0" d="M47.1 8.2l-5.6 8.2-5.2-11.9zm-13.8 5.9l8.2 2.3-9.2 4.1z"/><path class="st0" d="M29.7 23.6l-4.4 11.7-.1 7.6 3.6-1.3 4.5-27.5zm-.9 18.1l-1.1 6.1-2.4 1.2-.1-6.1m.3-38.8L21 7.3l4.3 8.6 5-8.8zm-8.4 10l3.7 9.5 4.5-7.7z"/><path class="st0" d="M20.5 4.5L12.3 2l-1.1 1.2L21 7.3l4.5-3.2zm-3.4 9.6L21 7.3l4.3 8.6z"/><path class="st0" d="M17.1 14.1l-2.9-9.6L21 7.3zm-2.9-9.6L3.8 8l7.4-4.8zM12.3 2L3.4 8.2l7.8-5z"/><path class="st0" d="M3.4 8.2L9 16.4l5.2-11.9zm13.7 5.9L9 16.4l9.2 4.1z"/><path class="st0" d="M20.8 23.6l4.5 11.7-.1 7.6-3.5-1.3-4.6-27.5zm.9 18.1l1 6.1 2.5 1.2v-6.1M32 21.8l6.5 8v2h-2.4L31 28.1zm-13.7-.3l-6.4 8.1v1.9h2.5l5-3.6z"/><circle class="st2" cx="21" cy="7.2" r=".5"/><circle class="st2" cx="30.3" cy="7.1" r=".5"/><circle class="st2" cx="25.3" cy="15.8" r=".5"/><circle class="st2" cx="17.1" cy="14.1" r=".5"/><circle class="st2" cx="41.5" cy="16.3" r=".5"/><circle class="st2" cx="33.3" cy="14.1" r=".5"/><circle class="st2" cx="36.3" cy="4.6" r=".5"/><circle class="st2" cx="47.1" cy="8.2" r=".5"/><circle class="st2" cx="29.8" cy="23.5" r=".5"/><circle class="st2" cx="20.8" cy="23.5" r=".5"/><circle class="st2" cx="9" cy="16.4" r=".5"/><ellipse transform="rotate(-60 3.384 8.17)" class="st2" cx="3.4" cy="8.2" rx=".5" ry=".5"/><circle class="st2" cx="14.2" cy="4.5" r=".5"/><circle class="st2" cx="31.1" cy="28.3" r=".5"/><circle class="st2" cx="19.4" cy="27.9" r=".5"/><circle class="st2" cx="25.3" cy="35.1" r=".5"/><circle class="st2" cx="25.2" cy="42.7" r=".5"/></svg>