<svg xmlns="http://www.w3.org/2000/svg" viewBox="0 0 162.17 162.17"><defs><style>.cls-2{fill:none;stroke-width:2px}.cls-2,.cls-4{stroke:#fff}.cls-2{stroke-linecap:round;stroke-linejoin:bevel}.cls-4{stroke-miterlimit:10;fill:#fff;stroke-width:5.11px}</style></defs><g id="Calque_2" data-name="Calque 2"><g id="Calque_1-2" data-name="Calque 1"><circle cx="81.08" cy="81.08" r="81.08" fill="#262a2d"/><path class="cls-2" d="M101.47 61.38l-9.61 25.25-11.77-20.45 21.38-4.8zm-8.83-25.57l21.84-6.66 2.79 3.33L93.38 42.8l-12.74-8.07 12 1.08z"/><path class="cls-2" d="M101.47 61.38L93.38 42.8 80.09 66.18l21.38-4.8z"/><path class="cls-2" d="M101.47 61.38l7.94-25.65-16.03 7.07 8.09 18.58zm7.94-25.65l27.5 9.3-19.64-12.55-7.86 3.25zm5.07-6.58l23.55 16.42-20.76-13.09-2.79-3.33zm23.55 16.42l-14.87 21.85-13.75-31.69 28.62 9.84zm-36.56 15.81l21.69 6.04L98.8 78.26l2.67-16.88zm-9.61 25.25L80.2 117.69l-.18 20.06 9.36-3.48 12.09-72.89-9.61 25.25zM89.5 134.5l-2.91 16.27-6.39 3.25-.18-16.27m.62-103.02l-11.85 8.52 11.3 22.93L93.38 42.8l-12.74-8.07z"/><path class="cls-2" d="M58.56 61.38l9.61 25.25 11.92-20.45-21.53-4.8zm8.83-25.57l-21.84-6.66-2.79 3.33 26.03 10.77 11.85-8.52-13.25 1.08z"/><path class="cls-2" d="M58.56 61.38l10.23-18.13 11.3 22.93-21.53-4.8z"/><path class="cls-2" d="M58.56 61.38l-7.94-25.65 18.17 7.52-10.23 18.13zm-7.94-25.65l-27.49 9.3 19.63-12.55 7.86 3.25z"/><path class="cls-2" d="M45.55 29.15L22 45.57l20.76-13.09 2.79-3.33zM22 45.57l14.87 21.85 13.75-31.69L22 45.57zm36.56 15.81l-21.69 6.04 24.37 10.84-2.68-16.88z"/><path class="cls-2" d="M68.17 86.63l12.03 31.06-.18 20.06-9.37-3.48-12.09-72.89 9.61 25.25zm2.36 47.87l2.91 16.27 6.39 3.25.19-16.27m18.06-55.96l17.31 21.3v5.27h-6.5L95.4 98.58l2.68-16.79zm-36.48-.71l-16.88 21.31v5.26h6.5l13.25-9.6-2.87-16.97z"/><circle class="cls-4" cx="68.79" cy="43.08" r="1.24"/><circle class="cls-4" cx="93.38" cy="42.81" r="1.24"/><circle class="cls-4" cx="80.2" cy="65.93" r="1.24"/><circle class="cls-4" cx="58.46" cy="61.38" r="1.24"/><circle class="cls-4" cx="123.16" cy="67.17" r="1.24"/><circle class="cls-4" cx="101.47" cy="61.38" r="1.24"/><circle class="cls-4" cx="109.41" cy="35.98" r="1.24"/><circle class="cls-4" cx="138.03" cy="45.57" r="1.24"/><circle class="cls-4" cx="92.13" cy="86.18" r="1.24"/><circle class="cls-4" cx="68.14" cy="86.18" r="1.24"/><circle class="cls-4" cx="36.87" cy="67.42" r="1.24"/><circle class="cls-4" cx="22" cy="45.57" r="1.24" transform="rotate(-60 22 45.576)"/><circle class="cls-4" cx="50.62" cy="35.73" r="1.24"/><circle class="cls-4" cx="95.73" cy="98.91" r="1.24"/><circle class="cls-4" cx="64.47" cy="97.94" r="1.24"/><circle class="cls-4" cx="80.2" cy="117.17" r="1.24"/><circle class="cls-4" cx="80.02" cy="137.32" r="1.24"/></g></g></svg>