<svg xmlns="http://www.w3.org/2000/svg" viewBox="0 0 162.17 162.17"><defs><style>.cls-1{fill:#262a2d;}.cls-2,.cls-3{fill:none;stroke-width:2px;}.cls-2,.cls-3,.cls-4{stroke:#fff;}.cls-2{stroke-linecap:round;stroke-linejoin:bevel;}.cls-3,.cls-4{stroke-miterlimit:10;}.cls-4{fill:#fff;stroke-width:5.11px;}</style></defs><title>Fichier 1</title><g id="Calque_2" data-name="Calque 2"><g id="Calque_1-2" data-name="Calque 1"><circle class="cls-1" cx="81.08" cy="81.08" r="81.08"></circle><polygon class="cls-2" points="101.47 61.38 91.86 86.63 80.09 66.18 101.47 61.38"></polygon><polygon class="cls-2" points="92.64 35.81 114.48 29.15 117.27 32.48 93.38 42.8 80.64 34.73 92.64 35.81"></polygon><polygon class="cls-2" points="101.47 61.38 93.38 42.8 80.09 66.18 101.47 61.38"></polygon><polygon class="cls-2" points="101.47 61.38 109.41 35.73 93.38 42.8 101.47 61.38"></polygon><polygon class="cls-2" points="109.41 35.73 136.91 45.03 117.27 32.48 109.41 35.73"></polygon><polygon class="cls-2" points="114.48 29.15 138.03 45.57 117.27 32.48 114.48 29.15"></polygon><polygon class="cls-2" points="138.03 45.57 123.16 67.42 109.41 35.73 138.03 45.57"></polygon><polygon class="cls-2" points="101.47 61.38 123.16 67.42 98.8 78.26 101.47 61.38"></polygon><polygon class="cls-2" points="91.86 86.63 80.2 117.69 80.02 137.75 89.38 134.27 101.47 61.38 91.86 86.63"></polygon><polyline class="cls-2" points="89.5 134.5 86.59 150.77 80.2 154.02 80.02 137.75"></polyline><polygon class="cls-2" points="80.64 34.73 68.79 43.25 80.09 66.18 93.38 42.8 80.64 34.73"></polygon><polygon class="cls-2" points="58.56 61.38 68.17 86.63 80.09 66.18 58.56 61.38"></polygon><polygon class="cls-2" points="67.39 35.81 45.55 29.15 42.76 32.48 68.79 43.25 80.64 34.73 67.39 35.81"></polygon><polygon class="cls-2" points="58.56 61.38 68.79 43.25 80.09 66.18 58.56 61.38"></polygon><polygon class="cls-2" points="58.56 61.38 50.62 35.73 68.79 43.25 58.56 61.38"></polygon><polygon class="cls-2" points="50.62 35.73 23.13 45.03 42.76 32.48 50.62 35.73"></polygon><polygon class="cls-2" points="45.55 29.15 22 45.57 42.76 32.48 45.55 29.15"></polygon><polygon class="cls-2" points="22 45.57 36.87 67.42 50.62 35.73 22 45.57"></polygon><polygon class="cls-2" points="58.56 61.38 36.87 67.42 61.24 78.26 58.56 61.38"></polygon><polygon class="cls-2" points="68.17 86.63 80.2 117.69 80.02 137.75 70.65 134.27 58.56 61.38 68.17 86.63"></polygon><polyline class="cls-2" points="70.53 134.5 73.44 150.77 79.83 154.02 80.02 137.75"></polyline><polygon class="cls-2" points="98.08 81.79 115.39 103.09 115.39 108.36 108.89 108.36 95.4 98.58 98.08 81.79"></polygon><polygon class="cls-2" points="61.6 81.08 44.72 102.39 44.72 107.65 51.22 107.65 64.47 98.05 61.6 81.08"></polygon><path class="cls-3" d="M51.22,107.65"></path><path class="cls-3" d="M44.72,102.39"></path><path class="cls-3" d="M115.15,102.83"></path><path class="cls-3" d="M108.74,108.21"></path><circle class="cls-4" cx="68.79" cy="43.08" r="1.24"></circle><circle class="cls-4" cx="93.38" cy="42.81" r="1.24"></circle><circle class="cls-4" cx="80.2" cy="65.93" r="1.24"></circle><circle class="cls-4" cx="58.46" cy="61.38" r="1.24"></circle><circle class="cls-4" cx="123.16" cy="67.17" r="1.24"></circle><circle class="cls-4" cx="101.47" cy="61.38" r="1.24"></circle><circle class="cls-4" cx="109.41" cy="35.98" r="1.24"></circle><circle class="cls-4" cx="138.03" cy="45.57" r="1.24"></circle><circle class="cls-4" cx="92.13" cy="86.18" r="1.24"></circle><circle class="cls-4" cx="68.14" cy="86.18" r="1.24"></circle><circle class="cls-4" cx="36.87" cy="67.42" r="1.24"></circle><circle class="cls-4" cx="22" cy="45.57" r="1.24" transform="translate(-28.47 41.84) rotate(-60)"></circle><circle class="cls-4" cx="50.62" cy="35.73" r="1.24"></circle><circle class="cls-4" cx="95.73" cy="98.91" r="1.24"></circle><circle class="cls-4" cx="64.47" cy="97.94" r="1.24"></circle><circle class="cls-4" cx="80.2" cy="117.17" r="1.24"></circle><circle class="cls-4" cx="80.02" cy="137.32" r="1.24"></circle></g></g></svg>